<svg xmlns="http://www.w3.org/2000/svg"
                viewBox="0 0 36 23.25">
                <defs>
                    <defs>
                        <mask id="screen-mask">
                            <rect width="100" height="100" fill="white"/>
                            <path
                                d="M .5 .75
                                Q .5 .5 .75 .5
                                L 5.25 .5
                                Q 5.5 .5 5.5 .75
                                L 5.5 4.25
                                Q 5.5 4.5 5.25 4.5
                                L .75 4.5
                                Q .5 4.5 .5 4.25
                                Z"  
                                fill="black"/>
                            <circle cx="3" cy="7" r="1.5" fill="black" />
                            <circle cx="3" cy="7" r=".5" fill="white" />
                        </mask>
                    </defs>
                </defs>

                <g mask="url(#screen-mask)">
                    <path fill="black" fill-opacity=".2"
                    d="M 0 .5
                    Q 0 0 .5 0 
                    L 5.5 0
                    Q 6 0 6 .5
                    L 6 9
                    Q 6 9.5 5.5 9.5
                    L .5 9.5
                    Q 0 9.5 0 9
                    Z"  /> 
                </g>

		        <g mask="url(#screen-mask)" transform="translate(18 11.125)">
                    <path fill="black" fill-opacity=".2"
                    d="M 0 .5
                    Q 0 0 .5 0 
                    L 5.5 0
                    Q 6 0 6 .5
                    L 6 9
                    Q 6 9.5 5.5 9.5
                    L .5 9.5
                    Q 0 9.5 0 9
                    Z"  /> 
                </g>
            </svg>