<svg xmlns="http://www.w3.org/2000/svg"
                viewBox="0 0 36 15.833333">
                <defs>
                    <defs>
                        <mask id="screen-mask">
                            <rect width="100" height="100" fill="white"/>
                            <path
                                d="M 1 1.25
                                Q 1 1 1.25 1
                                L 4.75 1
                                Q 5 1 5 1.25
                                L 5 4.25
                                Q 5 4.5 4.75 4.5
                                L 1.25 4.5
                                Q 1 4.5 1 4.25
                                Z"  
                                fill="black"/>
                            <circle cx="3" cy="7" r="1.5" fill="black" />
                            <circle cx="3" cy="7" r=".5" fill="white" />
                        </mask>
                    </defs>
                </defs>

                <g mask="url(#screen-mask)">
                    <path fill="black" fill-opacity=".2"
                    d="M 0 .5
                    Q 0 0 .5 0 
                    L 5.5 0
                    Q 6 0 6 .5
                    L 6 9
                    Q 6 9.5 5.5 9.5
                    L .5 9.5
                    Q 0 9.5 0 9
                    Z"  /> 
                </g>

		        <g mask="url(#screen-mask)" transform="translate(18 6.3333)">
                    <path fill="black" fill-opacity=".2"
                    d="M 0 .5
                    Q 0 0 .5 0 
                    L 5.5 0
                    Q 6 0 6 .5
                    L 6 9
                    Q 6 9.5 5.5 9.5
                    L .5 9.5
                    Q 0 9.5 0 9
                    Z"  /> 
                </g>
            </svg>